<mxfile host="app.diagrams.net" agent="Mozilla/5.0 (Macintosh; Intel Mac OS X 10_15_7) AppleWebKit/537.36 (KHTML, like Gecko) Chrome/130.0.0.0 Safari/537.36" version="24.8.6">
  <diagram name="Page-1" id="2YBvvXClWsGukQMizWep">
    <mxGraphModel dx="1924" dy="1047" grid="1" gridSize="10" guides="1" tooltips="1" connect="1" arrows="1" fold="1" page="1" pageScale="1" pageWidth="850" pageHeight="1100" math="0" shadow="0">
      <root>
        <mxCell id="0" />
        <mxCell id="1" parent="0" />
        <mxCell id="CDiMzmy5HLLCOwz-G3Xv-21" style="edgeStyle=orthogonalEdgeStyle;rounded=0;orthogonalLoop=1;jettySize=auto;html=1;entryX=0;entryY=0.5;entryDx=0;entryDy=0;" edge="1" parent="1" source="CDiMzmy5HLLCOwz-G3Xv-2" target="CDiMzmy5HLLCOwz-G3Xv-3">
          <mxGeometry relative="1" as="geometry" />
        </mxCell>
        <mxCell id="CDiMzmy5HLLCOwz-G3Xv-23" style="edgeStyle=orthogonalEdgeStyle;rounded=0;orthogonalLoop=1;jettySize=auto;html=1;entryX=0.5;entryY=0;entryDx=0;entryDy=0;dashed=1;" edge="1" parent="1" source="CDiMzmy5HLLCOwz-G3Xv-2" target="CDiMzmy5HLLCOwz-G3Xv-7">
          <mxGeometry relative="1" as="geometry" />
        </mxCell>
        <mxCell id="CDiMzmy5HLLCOwz-G3Xv-24" value="create request" style="edgeLabel;html=1;align=center;verticalAlign=middle;resizable=0;points=[];" vertex="1" connectable="0" parent="CDiMzmy5HLLCOwz-G3Xv-23">
          <mxGeometry x="-0.1833" y="-1" relative="1" as="geometry">
            <mxPoint as="offset" />
          </mxGeometry>
        </mxCell>
        <mxCell id="CDiMzmy5HLLCOwz-G3Xv-2" value="account" style="rounded=0;whiteSpace=wrap;html=1;fillColor=#dae8fc;strokeColor=#6c8ebf;" vertex="1" parent="1">
          <mxGeometry x="120" y="355" width="120" height="60" as="geometry" />
        </mxCell>
        <mxCell id="CDiMzmy5HLLCOwz-G3Xv-22" style="edgeStyle=orthogonalEdgeStyle;rounded=0;orthogonalLoop=1;jettySize=auto;html=1;entryX=0;entryY=0.5;entryDx=0;entryDy=0;" edge="1" parent="1" source="CDiMzmy5HLLCOwz-G3Xv-3" target="CDiMzmy5HLLCOwz-G3Xv-4">
          <mxGeometry relative="1" as="geometry" />
        </mxCell>
        <mxCell id="CDiMzmy5HLLCOwz-G3Xv-31" style="edgeStyle=orthogonalEdgeStyle;rounded=0;orthogonalLoop=1;jettySize=auto;html=1;entryX=0.5;entryY=1;entryDx=0;entryDy=0;dashed=1;" edge="1" parent="1" source="CDiMzmy5HLLCOwz-G3Xv-3" target="CDiMzmy5HLLCOwz-G3Xv-8">
          <mxGeometry relative="1" as="geometry" />
        </mxCell>
        <mxCell id="CDiMzmy5HLLCOwz-G3Xv-32" value="store credentials" style="edgeLabel;html=1;align=center;verticalAlign=middle;resizable=0;points=[];" vertex="1" connectable="0" parent="CDiMzmy5HLLCOwz-G3Xv-31">
          <mxGeometry y="1" relative="1" as="geometry">
            <mxPoint as="offset" />
          </mxGeometry>
        </mxCell>
        <mxCell id="CDiMzmy5HLLCOwz-G3Xv-36" style="edgeStyle=orthogonalEdgeStyle;rounded=0;orthogonalLoop=1;jettySize=auto;html=1;exitX=0.75;exitY=1;exitDx=0;exitDy=0;entryX=0.5;entryY=0;entryDx=0;entryDy=0;dashed=1;" edge="1" parent="1" source="CDiMzmy5HLLCOwz-G3Xv-3" target="CDiMzmy5HLLCOwz-G3Xv-9">
          <mxGeometry relative="1" as="geometry" />
        </mxCell>
        <mxCell id="CDiMzmy5HLLCOwz-G3Xv-37" value="create request" style="edgeLabel;html=1;align=center;verticalAlign=middle;resizable=0;points=[];" vertex="1" connectable="0" parent="CDiMzmy5HLLCOwz-G3Xv-36">
          <mxGeometry x="0.2286" y="-4" relative="1" as="geometry">
            <mxPoint x="-59" y="-16" as="offset" />
          </mxGeometry>
        </mxCell>
        <mxCell id="CDiMzmy5HLLCOwz-G3Xv-3" value="tech user&amp;nbsp;" style="rounded=0;whiteSpace=wrap;html=1;fillColor=#dae8fc;strokeColor=#6c8ebf;" vertex="1" parent="1">
          <mxGeometry x="350" y="355" width="120" height="60" as="geometry" />
        </mxCell>
        <mxCell id="CDiMzmy5HLLCOwz-G3Xv-25" style="edgeStyle=orthogonalEdgeStyle;rounded=0;orthogonalLoop=1;jettySize=auto;html=1;dashed=1;entryX=1;entryY=0.5;entryDx=0;entryDy=0;exitX=0.5;exitY=1;exitDx=0;exitDy=0;" edge="1" parent="1" source="CDiMzmy5HLLCOwz-G3Xv-4" target="CDiMzmy5HLLCOwz-G3Xv-9">
          <mxGeometry relative="1" as="geometry">
            <Array as="points">
              <mxPoint x="680" y="565" />
            </Array>
          </mxGeometry>
        </mxCell>
        <mxCell id="CDiMzmy5HLLCOwz-G3Xv-26" value="create request" style="edgeLabel;html=1;align=center;verticalAlign=middle;resizable=0;points=[];" vertex="1" connectable="0" parent="CDiMzmy5HLLCOwz-G3Xv-25">
          <mxGeometry x="-0.0833" y="-3" relative="1" as="geometry">
            <mxPoint x="3" y="-37" as="offset" />
          </mxGeometry>
        </mxCell>
        <mxCell id="CDiMzmy5HLLCOwz-G3Xv-4" value="bucket" style="rounded=0;whiteSpace=wrap;html=1;fillColor=#dae8fc;strokeColor=#6c8ebf;" vertex="1" parent="1">
          <mxGeometry x="620" y="355" width="120" height="60" as="geometry" />
        </mxCell>
        <mxCell id="CDiMzmy5HLLCOwz-G3Xv-34" style="edgeStyle=orthogonalEdgeStyle;rounded=0;orthogonalLoop=1;jettySize=auto;html=1;entryX=0;entryY=0.5;entryDx=0;entryDy=0;dashed=1;" edge="1" parent="1" source="CDiMzmy5HLLCOwz-G3Xv-7" target="CDiMzmy5HLLCOwz-G3Xv-9">
          <mxGeometry relative="1" as="geometry" />
        </mxCell>
        <mxCell id="CDiMzmy5HLLCOwz-G3Xv-35" value="create request" style="edgeLabel;html=1;align=center;verticalAlign=middle;resizable=0;points=[];" vertex="1" connectable="0" parent="CDiMzmy5HLLCOwz-G3Xv-34">
          <mxGeometry x="-0.24" y="-2" relative="1" as="geometry">
            <mxPoint as="offset" />
          </mxGeometry>
        </mxCell>
        <mxCell id="CDiMzmy5HLLCOwz-G3Xv-7" value="multi-cloud" style="shape=parallelogram;perimeter=parallelogramPerimeter;whiteSpace=wrap;html=1;fixedSize=1;" vertex="1" parent="1">
          <mxGeometry x="120" y="535" width="120" height="60" as="geometry" />
        </mxCell>
        <mxCell id="CDiMzmy5HLLCOwz-G3Xv-8" value="vault" style="shape=parallelogram;perimeter=parallelogramPerimeter;whiteSpace=wrap;html=1;fixedSize=1;" vertex="1" parent="1">
          <mxGeometry x="350" y="213" width="120" height="60" as="geometry" />
        </mxCell>
        <mxCell id="CDiMzmy5HLLCOwz-G3Xv-9" value="GCP" style="shape=parallelogram;perimeter=parallelogramPerimeter;whiteSpace=wrap;html=1;fixedSize=1;" vertex="1" parent="1">
          <mxGeometry x="470" y="535" width="120" height="60" as="geometry" />
        </mxCell>
        <mxCell id="CDiMzmy5HLLCOwz-G3Xv-29" value="" style="rounded=0;whiteSpace=wrap;html=1;fillColor=none;dashed=1;dashPattern=12 12;" vertex="1" parent="1">
          <mxGeometry x="40" y="190" width="740" height="440" as="geometry" />
        </mxCell>
        <mxCell id="CDiMzmy5HLLCOwz-G3Xv-30" value="Composition" style="text;html=1;align=center;verticalAlign=middle;whiteSpace=wrap;rounded=0;" vertex="1" parent="1">
          <mxGeometry x="60" y="200" width="100" height="30" as="geometry" />
        </mxCell>
      </root>
    </mxGraphModel>
  </diagram>
</mxfile>
